<?xml version="1.0" standalone="no"?>
<!DOCTYPE svg PUBLIC "-//W3C//DTD SVG 20010904//EN"
 "http://www.w3.org/TR/2001/REC-SVG-20010904/DTD/svg10.dtd">
<svg version="1.0" xmlns="http://www.w3.org/2000/svg"
 width="500.000000pt" height="500.000000pt" viewBox="0 0 500.000000 500.000000"
 preserveAspectRatio="xMidYMid meet">
<metadata>
Created by potrace 1.11, written by Peter Selinger 2001-2013
</metadata>
<g transform="translate(0.000000,500.000000) scale(0.100000,-0.100000)"
fill="#000000" stroke="none">
<path d="M2270 4848 c-124 -72 -241 -140 -260 -151 -19 -11 -48 -28 -65 -38
-16 -10 -41 -24 -55 -32 -21 -11 -780 -453 -1190 -692 -141 -83 -190 -111
-272 -158 l-58 -32 0 -1240 1 -1240 121 -70 c67 -38 142 -82 167 -97 25 -15
62 -35 81 -46 19 -11 238 -138 485 -282 248 -145 468 -273 490 -286 22 -12
114 -66 205 -119 91 -54 181 -106 200 -117 19 -11 103 -60 185 -108 212 -123
188 -114 232 -86 21 13 124 73 228 134 105 60 206 119 225 130 36 21 103 60
175 101 22 13 76 44 120 70 44 26 103 61 130 77 28 16 58 33 67 39 9 5 57 33
105 61 48 28 157 91 241 140 84 49 172 100 196 114 24 14 168 97 319 185 l276
160 1 1237 0 1238 -37 24 c-21 13 -177 105 -348 204 -170 99 -324 188 -342
198 -17 11 -86 51 -152 89 -67 39 -149 87 -184 107 -34 20 -75 44 -92 54 -16
9 -223 129 -460 267 -236 137 -448 260 -470 273 l-41 23 -224 -131z m288 -310
c2 -5 7 -8 12 -8 4 0 56 -28 115 -62 58 -35 123 -72 143 -84 20 -12 64 -37 97
-56 33 -19 112 -65 175 -102 63 -37 122 -71 130 -76 8 -6 188 -111 400 -234
212 -123 405 -236 430 -250 25 -15 53 -29 63 -33 9 -3 17 -9 17 -14 0 -5 4 -9
9 -9 5 0 34 -14 65 -32 l56 -32 0 -1041 0 -1040 -86 -50 c-48 -27 -111 -64
-141 -81 -30 -17 -59 -37 -64 -45 -5 -8 -9 -10 -9 -6 0 5 -17 -1 -37 -13 -21
-13 -78 -46 -128 -75 -49 -28 -155 -90 -235 -137 -295 -173 -827 -482 -880
-511 -30 -16 -62 -35 -70 -42 -42 -33 -126 -72 -140 -64 -8 5 -45 27 -83 49
-37 22 -69 40 -71 40 -2 0 -33 18 -67 40 -35 22 -71 43 -79 47 -8 3 -59 33
-113 65 -54 32 -99 58 -101 58 -6 0 -115 67 -131 80 -8 6 -19 9 -25 5 -5 -3
-10 -2 -10 3 0 8 -162 106 -286 173 -16 9 -47 29 -68 43 -22 14 -45 26 -52 26
-8 0 -14 3 -14 8 0 4 -10 12 -23 18 -21 10 -628 363 -635 369 -2 2 -4 470 -4
1040 l0 1037 89 53 c48 28 162 95 253 148 91 52 179 103 197 114 17 10 120 70
229 133 108 63 215 126 238 138 22 13 52 31 66 40 14 9 27 17 30 17 5 1 183
104 328 191 40 24 77 44 82 44 6 0 10 5 10 10 0 6 4 10 9 10 6 0 63 31 128 69
l118 69 30 -16 c17 -10 32 -20 33 -24z"/>
<path d="M1352 3388 c-53 -20 -94 -57 -119 -107 -17 -34 -18 -89 -19 -854 l-1
-817 216 2 216 3 0 678 0 677 25 1 c67 2 587 -1 601 -3 34 -7 88 -59 100 -95
9 -29 13 -187 13 -648 l1 -610 209 -3 c125 -1 212 1 215 7 5 7 5 1175 1 1284
-1 10 -5 30 -10 43 -11 29 -34 26 237 26 191 0 204 -1 242 -23 77 -43 74 -15
75 -717 l0 -622 216 2 215 3 -1 645 c-1 580 -2 651 -18 709 -62 229 -241 386
-488 427 -24 4 -186 8 -360 8 -277 1 -318 -1 -319 -14 -1 -8 -2 -36 -2 -62 -1
-27 -4 -48 -7 -48 -3 0 -16 7 -29 17 -34 23 -138 72 -164 77 -12 3 -22 5 -22
6 0 2 -20 6 -75 16 -25 4 -238 8 -474 8 -382 1 -433 -1 -474 -16z"/>
</g>
</svg>
